<mxfile host="app.diagrams.net" modified="2021-05-24T13:43:12.995Z" agent="5.0 (Windows NT 10.0; Win64; x64) AppleWebKit/537.36 (KHTML, like Gecko) Chrome/90.0.4430.212 Safari/537.36" etag="n3Uz0d68PoemWcAGwHZO" version="14.6.13" type="github">
  <diagram id="DgXNi0jxYsMffFzeO4gT" name="Page-1">
    <mxGraphModel dx="1422" dy="794" grid="1" gridSize="10" guides="1" tooltips="1" connect="1" arrows="1" fold="1" page="1" pageScale="1" pageWidth="827" pageHeight="1169" math="0" shadow="0">
      <root>
        <mxCell id="0" />
        <mxCell id="1" parent="0" />
        <mxCell id="a19bK3UWQwVOZlgTpkgb-32" style="edgeStyle=orthogonalEdgeStyle;rounded=0;orthogonalLoop=1;jettySize=auto;html=1;exitX=0.5;exitY=1;exitDx=0;exitDy=0;" edge="1" parent="1" source="a19bK3UWQwVOZlgTpkgb-1" target="a19bK3UWQwVOZlgTpkgb-2">
          <mxGeometry relative="1" as="geometry" />
        </mxCell>
        <mxCell id="a19bK3UWQwVOZlgTpkgb-1" value="&lt;font style=&quot;font-size: 18px&quot;&gt;客户端&lt;br&gt;接收界面过滤参数&lt;br&gt;&lt;/font&gt;" style="rounded=0;whiteSpace=wrap;html=1;" vertex="1" parent="1">
          <mxGeometry x="180" y="130" width="160" height="60" as="geometry" />
        </mxCell>
        <mxCell id="a19bK3UWQwVOZlgTpkgb-31" style="edgeStyle=orthogonalEdgeStyle;rounded=0;orthogonalLoop=1;jettySize=auto;html=1;exitX=0.5;exitY=1;exitDx=0;exitDy=0;" edge="1" parent="1" source="a19bK3UWQwVOZlgTpkgb-2" target="a19bK3UWQwVOZlgTpkgb-3">
          <mxGeometry relative="1" as="geometry" />
        </mxCell>
        <mxCell id="a19bK3UWQwVOZlgTpkgb-2" value="&lt;font style=&quot;font-size: 18px&quot;&gt;C代码&lt;/font&gt;" style="rounded=0;whiteSpace=wrap;html=1;" vertex="1" parent="1">
          <mxGeometry x="180" y="240" width="160" height="60" as="geometry" />
        </mxCell>
        <mxCell id="a19bK3UWQwVOZlgTpkgb-3" value="&lt;font style=&quot;font-size: 18px&quot;&gt;eBPF字节码&lt;/font&gt;" style="rounded=0;whiteSpace=wrap;html=1;" vertex="1" parent="1">
          <mxGeometry x="180" y="350" width="160" height="60" as="geometry" />
        </mxCell>
        <mxCell id="a19bK3UWQwVOZlgTpkgb-4" value="&lt;font style=&quot;font-size: 18px&quot;&gt;服务端&lt;br&gt;接收包&lt;/font&gt;" style="rounded=0;whiteSpace=wrap;html=1;" vertex="1" parent="1">
          <mxGeometry x="520" y="130" width="120" height="60" as="geometry" />
        </mxCell>
        <mxCell id="a19bK3UWQwVOZlgTpkgb-6" value="&lt;font style=&quot;font-size: 18px&quot;&gt;MAP&lt;/font&gt;" style="rounded=0;whiteSpace=wrap;html=1;" vertex="1" parent="1">
          <mxGeometry x="354" y="525" width="120" height="60" as="geometry" />
        </mxCell>
        <mxCell id="a19bK3UWQwVOZlgTpkgb-7" value="&lt;font style=&quot;font-size: 18px&quot;&gt;协议栈处理&lt;/font&gt;" style="rounded=0;whiteSpace=wrap;html=1;" vertex="1" parent="1">
          <mxGeometry x="520" y="525" width="120" height="60" as="geometry" />
        </mxCell>
        <mxCell id="a19bK3UWQwVOZlgTpkgb-28" style="edgeStyle=orthogonalEdgeStyle;rounded=0;orthogonalLoop=1;jettySize=auto;html=1;exitX=0.5;exitY=0;exitDx=0;exitDy=0;entryX=0.5;entryY=1;entryDx=0;entryDy=0;" edge="1" parent="1" source="a19bK3UWQwVOZlgTpkgb-8" target="a19bK3UWQwVOZlgTpkgb-6">
          <mxGeometry relative="1" as="geometry" />
        </mxCell>
        <mxCell id="a19bK3UWQwVOZlgTpkgb-8" value="&lt;font style=&quot;font-size: 18px&quot;&gt;网卡驱动程序&lt;br&gt;&lt;/font&gt;&lt;font style=&quot;font-size: 18px&quot;&gt;eBPF字节码&lt;/font&gt;" style="rounded=0;whiteSpace=wrap;html=1;" vertex="1" parent="1">
          <mxGeometry x="354" y="630" width="120" height="60" as="geometry" />
        </mxCell>
        <mxCell id="a19bK3UWQwVOZlgTpkgb-30" style="edgeStyle=orthogonalEdgeStyle;rounded=0;orthogonalLoop=1;jettySize=auto;html=1;exitX=0.75;exitY=0;exitDx=0;exitDy=0;entryX=0.408;entryY=1.083;entryDx=0;entryDy=0;entryPerimeter=0;" edge="1" parent="1" source="a19bK3UWQwVOZlgTpkgb-9" target="a19bK3UWQwVOZlgTpkgb-7">
          <mxGeometry relative="1" as="geometry" />
        </mxCell>
        <mxCell id="a19bK3UWQwVOZlgTpkgb-9" value="&lt;font style=&quot;font-size: 18px&quot;&gt;网卡&lt;/font&gt;" style="rounded=0;whiteSpace=wrap;html=1;" vertex="1" parent="1">
          <mxGeometry x="354" y="690" width="286" height="60" as="geometry" />
        </mxCell>
        <mxCell id="a19bK3UWQwVOZlgTpkgb-10" value="" style="shape=link;html=1;" edge="1" parent="1">
          <mxGeometry width="100" relative="1" as="geometry">
            <mxPoint y="480" as="sourcePoint" />
            <mxPoint x="830" y="480" as="targetPoint" />
          </mxGeometry>
        </mxCell>
        <mxCell id="a19bK3UWQwVOZlgTpkgb-12" value="&lt;font style=&quot;font-size: 18px&quot;&gt;User Space&lt;/font&gt;" style="text;html=1;align=center;verticalAlign=middle;resizable=0;points=[];autosize=1;strokeColor=none;" vertex="1" parent="1">
          <mxGeometry x="685" y="400" width="110" height="20" as="geometry" />
        </mxCell>
        <mxCell id="a19bK3UWQwVOZlgTpkgb-13" value="&lt;font style=&quot;font-size: 18px&quot;&gt;Kernel Space&lt;/font&gt;" style="text;html=1;align=center;verticalAlign=middle;resizable=0;points=[];autosize=1;strokeColor=none;" vertex="1" parent="1">
          <mxGeometry x="680" y="520" width="120" height="20" as="geometry" />
        </mxCell>
        <mxCell id="a19bK3UWQwVOZlgTpkgb-14" value="" style="shape=flexArrow;endArrow=classic;html=1;" edge="1" parent="1">
          <mxGeometry width="50" height="50" relative="1" as="geometry">
            <mxPoint x="50" y="270" as="sourcePoint" />
            <mxPoint x="170" y="269.5" as="targetPoint" />
          </mxGeometry>
        </mxCell>
        <mxCell id="a19bK3UWQwVOZlgTpkgb-15" value="" style="shape=flexArrow;endArrow=classic;html=1;" edge="1" parent="1">
          <mxGeometry width="50" height="50" relative="1" as="geometry">
            <mxPoint x="50" y="380" as="sourcePoint" />
            <mxPoint x="170" y="379.5" as="targetPoint" />
          </mxGeometry>
        </mxCell>
        <mxCell id="a19bK3UWQwVOZlgTpkgb-16" value="" style="shape=flexArrow;endArrow=classic;html=1;" edge="1" parent="1">
          <mxGeometry width="50" height="50" relative="1" as="geometry">
            <mxPoint x="605" y="840" as="sourcePoint" />
            <mxPoint x="605" y="780" as="targetPoint" />
          </mxGeometry>
        </mxCell>
        <mxCell id="a19bK3UWQwVOZlgTpkgb-17" value="" style="shape=flexArrow;endArrow=classic;html=1;" edge="1" parent="1">
          <mxGeometry width="50" height="50" relative="1" as="geometry">
            <mxPoint x="413" y="840" as="sourcePoint" />
            <mxPoint x="413" y="780" as="targetPoint" />
          </mxGeometry>
        </mxCell>
        <mxCell id="a19bK3UWQwVOZlgTpkgb-18" value="" style="shape=flexArrow;endArrow=classic;html=1;" edge="1" parent="1">
          <mxGeometry width="50" height="50" relative="1" as="geometry">
            <mxPoint x="510" y="840" as="sourcePoint" />
            <mxPoint x="510" y="780" as="targetPoint" />
          </mxGeometry>
        </mxCell>
        <mxCell id="a19bK3UWQwVOZlgTpkgb-19" value="&lt;font style=&quot;font-size: 18px&quot;&gt;数据包&lt;/font&gt;" style="text;html=1;align=center;verticalAlign=middle;resizable=0;points=[];autosize=1;strokeColor=none;" vertex="1" parent="1">
          <mxGeometry x="425" y="810" width="70" height="20" as="geometry" />
        </mxCell>
        <mxCell id="a19bK3UWQwVOZlgTpkgb-20" value="" style="shape=flexArrow;endArrow=classic;html=1;" edge="1" parent="1">
          <mxGeometry width="50" height="50" relative="1" as="geometry">
            <mxPoint x="220" y="430" as="sourcePoint" />
            <mxPoint x="340" y="710" as="targetPoint" />
          </mxGeometry>
        </mxCell>
        <mxCell id="a19bK3UWQwVOZlgTpkgb-22" value="&lt;font style=&quot;font-size: 18px&quot;&gt;加载器&lt;/font&gt;" style="edgeLabel;html=1;align=center;verticalAlign=middle;resizable=0;points=[];" vertex="1" connectable="0" parent="a19bK3UWQwVOZlgTpkgb-20">
          <mxGeometry x="-0.1379" y="-1" relative="1" as="geometry">
            <mxPoint as="offset" />
          </mxGeometry>
        </mxCell>
        <mxCell id="a19bK3UWQwVOZlgTpkgb-24" value="&lt;font style=&quot;font-size: 18px&quot;&gt;eBPF库&lt;/font&gt;" style="text;html=1;align=center;verticalAlign=middle;resizable=0;points=[];autosize=1;strokeColor=none;" vertex="1" parent="1">
          <mxGeometry x="60" y="220" width="80" height="20" as="geometry" />
        </mxCell>
        <mxCell id="a19bK3UWQwVOZlgTpkgb-25" value="&lt;font style=&quot;font-size: 18px&quot;&gt;bcc(clang/llvm)&lt;/font&gt;" style="text;html=1;align=center;verticalAlign=middle;resizable=0;points=[];autosize=1;strokeColor=none;" vertex="1" parent="1">
          <mxGeometry x="30" y="340" width="140" height="20" as="geometry" />
        </mxCell>
        <mxCell id="a19bK3UWQwVOZlgTpkgb-26" value="" style="shape=flexArrow;endArrow=classic;html=1;" edge="1" parent="1">
          <mxGeometry width="50" height="50" relative="1" as="geometry">
            <mxPoint x="420" y="510" as="sourcePoint" />
            <mxPoint x="580" y="200" as="targetPoint" />
          </mxGeometry>
        </mxCell>
        <mxCell id="a19bK3UWQwVOZlgTpkgb-27" value="&lt;font style=&quot;font-size: 18px&quot;&gt;传输数据&lt;/font&gt;" style="edgeLabel;html=1;align=center;verticalAlign=middle;resizable=0;points=[];" vertex="1" connectable="0" parent="a19bK3UWQwVOZlgTpkgb-26">
          <mxGeometry x="0.1515" y="-3" relative="1" as="geometry">
            <mxPoint as="offset" />
          </mxGeometry>
        </mxCell>
        <mxCell id="a19bK3UWQwVOZlgTpkgb-37" style="edgeStyle=orthogonalEdgeStyle;rounded=0;orthogonalLoop=1;jettySize=auto;html=1;exitX=0.5;exitY=1;exitDx=0;exitDy=0;" edge="1" parent="1" source="a19bK3UWQwVOZlgTpkgb-33" target="a19bK3UWQwVOZlgTpkgb-36">
          <mxGeometry relative="1" as="geometry" />
        </mxCell>
        <mxCell id="a19bK3UWQwVOZlgTpkgb-33" value="&lt;font style=&quot;font-size: 18px&quot;&gt;BPF Program&lt;/font&gt;" style="rounded=0;whiteSpace=wrap;html=1;" vertex="1" parent="1">
          <mxGeometry x="160" y="890" width="190" height="60" as="geometry" />
        </mxCell>
        <mxCell id="a19bK3UWQwVOZlgTpkgb-34" value="&lt;font style=&quot;font-size: 18px&quot;&gt;Reader&lt;/font&gt;" style="rounded=0;whiteSpace=wrap;html=1;" vertex="1" parent="1">
          <mxGeometry x="520" y="890" width="190" height="60" as="geometry" />
        </mxCell>
        <mxCell id="a19bK3UWQwVOZlgTpkgb-35" value="" style="shape=link;html=1;" edge="1" parent="1">
          <mxGeometry width="100" relative="1" as="geometry">
            <mxPoint y="1020" as="sourcePoint" />
            <mxPoint x="830" y="1020" as="targetPoint" />
          </mxGeometry>
        </mxCell>
        <mxCell id="a19bK3UWQwVOZlgTpkgb-36" value="&lt;font style=&quot;font-size: 18px&quot;&gt;prog.bpf&lt;/font&gt;" style="rounded=0;whiteSpace=wrap;html=1;" vertex="1" parent="1">
          <mxGeometry x="195" y="1060" width="120" height="60" as="geometry" />
        </mxCell>
        <mxCell id="a19bK3UWQwVOZlgTpkgb-38" value="&lt;font style=&quot;font-size: 18px&quot;&gt;LLVM/Clang&lt;/font&gt;" style="text;html=1;align=center;verticalAlign=middle;resizable=0;points=[];autosize=1;strokeColor=none;" vertex="1" parent="1">
          <mxGeometry x="245" y="960" width="110" height="20" as="geometry" />
        </mxCell>
        <mxCell id="a19bK3UWQwVOZlgTpkgb-39" value="&lt;font style=&quot;font-size: 18px&quot;&gt;Bytecode&lt;/font&gt;" style="text;html=1;align=center;verticalAlign=middle;resizable=0;points=[];autosize=1;strokeColor=none;" vertex="1" parent="1">
          <mxGeometry x="305" y="1080" width="90" height="20" as="geometry" />
        </mxCell>
        <mxCell id="a19bK3UWQwVOZlgTpkgb-40" value="&lt;font style=&quot;font-size: 14px&quot;&gt;Userspace&lt;/font&gt;" style="text;html=1;align=center;verticalAlign=middle;resizable=0;points=[];autosize=1;strokeColor=none;" vertex="1" parent="1">
          <mxGeometry x="730" y="990" width="80" height="20" as="geometry" />
        </mxCell>
        <mxCell id="a19bK3UWQwVOZlgTpkgb-41" value="&lt;font style=&quot;font-size: 14px&quot;&gt;Kernel&lt;/font&gt;" style="text;html=1;align=center;verticalAlign=middle;resizable=0;points=[];autosize=1;strokeColor=none;" vertex="1" parent="1">
          <mxGeometry x="740" y="1030" width="60" height="20" as="geometry" />
        </mxCell>
        <mxCell id="a19bK3UWQwVOZlgTpkgb-43" style="edgeStyle=orthogonalEdgeStyle;rounded=0;orthogonalLoop=1;jettySize=auto;html=1;exitX=0.5;exitY=0;exitDx=0;exitDy=0;" edge="1" parent="1" source="a19bK3UWQwVOZlgTpkgb-42" target="a19bK3UWQwVOZlgTpkgb-34">
          <mxGeometry relative="1" as="geometry" />
        </mxCell>
        <mxCell id="a19bK3UWQwVOZlgTpkgb-42" value="&lt;font style=&quot;font-size: 18px&quot;&gt;BPF Maps&lt;/font&gt;" style="rounded=0;whiteSpace=wrap;html=1;" vertex="1" parent="1">
          <mxGeometry x="555" y="1070" width="120" height="60" as="geometry" />
        </mxCell>
        <mxCell id="a19bK3UWQwVOZlgTpkgb-44" value="&lt;font style=&quot;font-size: 18px&quot;&gt;bpf()&lt;/font&gt;" style="text;html=1;align=center;verticalAlign=middle;resizable=0;points=[];autosize=1;strokeColor=none;" vertex="1" parent="1">
          <mxGeometry x="555" y="1030" width="50" height="20" as="geometry" />
        </mxCell>
        <mxCell id="a19bK3UWQwVOZlgTpkgb-45" value="" style="rounded=1;absoluteArcSize=1;html=1;arcSize=10;" vertex="1" parent="1">
          <mxGeometry x="360" y="1169" width="150" height="271" as="geometry" />
        </mxCell>
        <mxCell id="a19bK3UWQwVOZlgTpkgb-47" value="&lt;font style=&quot;font-size: 14px&quot;&gt;BPF Bytecode&lt;/font&gt;" style="rounded=1;absoluteArcSize=1;html=1;arcSize=10;whiteSpace=wrap;points=[];strokeColor=inherit;fillColor=inherit;" vertex="1" parent="a19bK3UWQwVOZlgTpkgb-45">
          <mxGeometry x="25.61379310344828" y="46.07" width="95.94827586206897" height="35.23" as="geometry" />
        </mxCell>
        <mxCell id="a19bK3UWQwVOZlgTpkgb-46" value="&lt;font style=&quot;font-size: 18px&quot;&gt;eBPF&lt;/font&gt;" style="html=1;shape=mxgraph.er.anchor;whiteSpace=wrap;" vertex="1" parent="a19bK3UWQwVOZlgTpkgb-45">
          <mxGeometry x="36.08275862068965" y="-116.53" width="75" height="271" as="geometry" />
        </mxCell>
        <mxCell id="a19bK3UWQwVOZlgTpkgb-53" value="&lt;font style=&quot;font-size: 14px&quot;&gt;Verifier + JIT&lt;/font&gt;" style="rounded=1;absoluteArcSize=1;html=1;arcSize=10;whiteSpace=wrap;points=[];strokeColor=inherit;fillColor=inherit;" vertex="1" parent="a19bK3UWQwVOZlgTpkgb-45">
          <mxGeometry x="25.61379310344827" y="109.30333333333333" width="95.94827586206897" height="35.23" as="geometry" />
        </mxCell>
        <mxCell id="a19bK3UWQwVOZlgTpkgb-52" value="&lt;span style=&quot;font-size: 14px&quot;&gt;Native Code&lt;/span&gt;" style="rounded=1;absoluteArcSize=1;html=1;arcSize=10;whiteSpace=wrap;points=[];strokeColor=inherit;fillColor=inherit;" vertex="1" parent="a19bK3UWQwVOZlgTpkgb-45">
          <mxGeometry x="27.031034482758617" y="172.53666666666666" width="95.94827586206897" height="35.23" as="geometry" />
        </mxCell>
        <mxCell id="a19bK3UWQwVOZlgTpkgb-50" value="&lt;font style=&quot;font-size: 18px&quot;&gt;bpf()&lt;/font&gt;" style="text;html=1;align=center;verticalAlign=middle;resizable=0;points=[];autosize=1;strokeColor=none;" vertex="1" parent="1">
          <mxGeometry x="245" y="1190" width="50" height="20" as="geometry" />
        </mxCell>
        <mxCell id="a19bK3UWQwVOZlgTpkgb-51" value="" style="endArrow=classic;html=1;exitX=0.5;exitY=1;exitDx=0;exitDy=0;" edge="1" parent="1" source="a19bK3UWQwVOZlgTpkgb-36">
          <mxGeometry width="50" height="50" relative="1" as="geometry">
            <mxPoint x="90" y="1300" as="sourcePoint" />
            <mxPoint x="380" y="1230" as="targetPoint" />
          </mxGeometry>
        </mxCell>
        <mxCell id="a19bK3UWQwVOZlgTpkgb-54" value="&lt;font style=&quot;font-size: 18px&quot;&gt;Kernel Functions&lt;/font&gt;" style="rounded=0;whiteSpace=wrap;html=1;" vertex="1" parent="1">
          <mxGeometry x="630" y="1329" width="120" height="60" as="geometry" />
        </mxCell>
        <mxCell id="a19bK3UWQwVOZlgTpkgb-55" value="" style="endArrow=classic;html=1;" edge="1" parent="1" source="a19bK3UWQwVOZlgTpkgb-52">
          <mxGeometry width="50" height="50" relative="1" as="geometry">
            <mxPoint x="530" y="1390" as="sourcePoint" />
            <mxPoint x="630" y="1360" as="targetPoint" />
          </mxGeometry>
        </mxCell>
        <mxCell id="a19bK3UWQwVOZlgTpkgb-57" value="" style="endArrow=classic;startArrow=classic;html=1;entryX=0.5;entryY=1;entryDx=0;entryDy=0;exitX=1;exitY=0.25;exitDx=0;exitDy=0;" edge="1" parent="1" source="a19bK3UWQwVOZlgTpkgb-45" target="a19bK3UWQwVOZlgTpkgb-42">
          <mxGeometry width="50" height="50" relative="1" as="geometry">
            <mxPoint x="590" y="1240" as="sourcePoint" />
            <mxPoint x="640" y="1190" as="targetPoint" />
          </mxGeometry>
        </mxCell>
        <mxCell id="a19bK3UWQwVOZlgTpkgb-58" value="&lt;font style=&quot;font-size: 18px&quot;&gt;data&lt;/font&gt;" style="edgeLabel;html=1;align=center;verticalAlign=middle;resizable=0;points=[];" vertex="1" connectable="0" parent="a19bK3UWQwVOZlgTpkgb-57">
          <mxGeometry x="-0.1714" y="-2" relative="1" as="geometry">
            <mxPoint as="offset" />
          </mxGeometry>
        </mxCell>
      </root>
    </mxGraphModel>
  </diagram>
</mxfile>
